<svg width="1934" height="1705" viewBox="0 0 1934 1705" fill="none" xmlns="http://www.w3.org/2000/svg">
<rect width="1934" height="1705" fill="#F5F5F5"/>
<path d="M836 657.563C353.963 590.441 284.534 1061.25 836 1019.36" stroke="#211F1E" stroke-width="100" stroke-linecap="round"/>
<g filter="url(#filter0_f_0_1)">
<path fill-rule="evenodd" clip-rule="evenodd" d="M922.202 1254.53C893.495 1211.63 873.538 1136.65 887.983 1018.99C891.296 992.013 871.992 967.464 844.869 964.159C817.745 960.855 793.072 980.046 789.76 1007.02C773.583 1138.79 793.648 1240.01 839.829 1309.04C886.917 1379.42 958.681 1411.95 1031.24 1406.88C1177.21 1396.69 1296.33 1243.77 1254.23 1029.78C1248.98 1003.1 1222.99 985.699 1196.17 990.909C1169.36 996.119 1151.87 1021.97 1157.12 1048.64C1190.89 1220.27 1095.98 1303.69 1024.27 1308.7C987.993 1311.23 950.003 1296.09 922.202 1254.53Z" fill="#D11FD5"/>
<path fill-rule="evenodd" clip-rule="evenodd" d="M922.202 1254.53C893.495 1211.63 873.538 1136.65 887.983 1018.99C891.296 992.013 871.992 967.464 844.869 964.159C817.745 960.855 793.072 980.046 789.76 1007.02C773.583 1138.79 793.648 1240.01 839.829 1309.04C886.917 1379.42 958.681 1411.95 1031.24 1406.88C1177.21 1396.69 1296.33 1243.77 1254.23 1029.78C1248.98 1003.1 1222.99 985.699 1196.17 990.909C1169.36 996.119 1151.87 1021.97 1157.12 1048.64C1190.89 1220.27 1095.98 1303.69 1024.27 1308.7C987.993 1311.23 950.003 1296.09 922.202 1254.53Z" fill="black" fill-opacity="0.2"/>
</g>
<path d="M1231 657.563C1673.28 590.441 1736.98 1061.25 1231 1019.36" stroke="#10100F" stroke-width="100" stroke-linecap="round"/>
<g filter="url(#filter1_b_0_1)">
<g filter="url(#filter2_d_0_1)">
<path d="M839.694 661.19C806.539 165.557 1222.71 178.147 1220.93 658.292" stroke="#E2DAE2" stroke-width="100" stroke-linecap="round"/>
<path d="M839.694 661.19C806.539 165.557 1222.71 178.147 1220.93 658.292" stroke="black" stroke-opacity="0.2" stroke-width="100" stroke-linecap="round"/>
</g>
</g>
<defs>
<filter id="filter0_f_0_1" x="780.226" y="959.789" width="486.578" height="451.607" filterUnits="userSpaceOnUse" color-interpolation-filters="sRGB">
<feFlood flood-opacity="0" result="BackgroundImageFix"/>
<feBlend mode="normal" in="SourceGraphic" in2="BackgroundImageFix" result="shape"/>
<feGaussianBlur stdDeviation="2" result="effect1_foregroundBlur_0_1"/>
</filter>
<filter id="filter1_b_0_1" x="783.815" y="239.815" width="491.119" height="475.377" filterUnits="userSpaceOnUse" color-interpolation-filters="sRGB">
<feFlood flood-opacity="0" result="BackgroundImageFix"/>
<feGaussianBlur in="BackgroundImageFix" stdDeviation="2"/>
<feComposite in2="SourceAlpha" operator="in" result="effect1_backgroundBlur_0_1"/>
<feBlend mode="normal" in="SourceGraphic" in2="effect1_backgroundBlur_0_1" result="shape"/>
</filter>
<filter id="filter2_d_0_1" x="783.815" y="243.815" width="491.119" height="475.377" filterUnits="userSpaceOnUse" color-interpolation-filters="sRGB">
<feFlood flood-opacity="0" result="BackgroundImageFix"/>
<feColorMatrix in="SourceAlpha" type="matrix" values="0 0 0 0 0 0 0 0 0 0 0 0 0 0 0 0 0 0 127 0" result="hardAlpha"/>
<feOffset dy="4"/>
<feGaussianBlur stdDeviation="2"/>
<feComposite in2="hardAlpha" operator="out"/>
<feColorMatrix type="matrix" values="0 0 0 0 0 0 0 0 0 0 0 0 0 0 0 0 0 0 0.25 0"/>
<feBlend mode="normal" in2="BackgroundImageFix" result="effect1_dropShadow_0_1"/>
<feBlend mode="normal" in="SourceGraphic" in2="effect1_dropShadow_0_1" result="shape"/>
</filter>
</defs>
</svg>
